<svg width="24" height="24" viewBox="0 0 24 24" fill="none" xmlns="http://www.w3.org/2000/svg">
<g clip-path="url(#clip0_496_1560)">
<rect x="9" width="6" height="2" fill="currentColor"/>
<rect x="15" y="24" width="6" height="2" transform="rotate(180 15 24)" fill="currentColor"/>
<rect y="15" width="6" height="2" transform="rotate(-90 0 15)" fill="currentColor"/>
<rect x="24" y="9" width="6" height="2" transform="rotate(90 24 9)" fill="currentColor"/>
<rect x="9" y="2" width="2" height="4" fill="currentColor"/>
<rect x="15" y="22" width="2" height="4" transform="rotate(180 15 22)" fill="currentColor"/>
<rect x="2" y="15" width="2" height="4" transform="rotate(-90 2 15)" fill="currentColor"/>
<rect x="22" y="9" width="2" height="4" transform="rotate(90 22 9)" fill="currentColor"/>
<rect x="13" y="2" width="2" height="4" fill="currentColor"/>
<rect x="11" y="22" width="2" height="4" transform="rotate(180 11 22)" fill="currentColor"/>
<rect x="2" y="11" width="2" height="4" transform="rotate(-90 2 11)" fill="currentColor"/>
<rect x="22" y="13" width="2" height="4" transform="rotate(90 22 13)" fill="currentColor"/>
<rect x="7" y="4" width="2" height="2" fill="currentColor"/>
<rect width="2" height="2" transform="matrix(-1 0 0 1 17 4)" fill="currentColor"/>
<rect x="17" y="20" width="2" height="2" transform="rotate(180 17 20)" fill="currentColor"/>
<rect width="2" height="2" transform="matrix(1 0 0 -1 7 20)" fill="currentColor"/>
<rect x="2" y="2" width="5" height="2" fill="currentColor"/>
<rect width="5" height="2" transform="matrix(-1 0 0 1 22 2)" fill="currentColor"/>
<rect x="22" y="22" width="5" height="2" transform="rotate(180 22 22)" fill="currentColor"/>
<rect width="5" height="2" transform="matrix(1 0 0 -1 2 22)" fill="currentColor"/>
<rect x="2" y="2" width="2" height="5" fill="currentColor"/>
<rect width="2" height="5" transform="matrix(-1 0 0 1 22 2)" fill="currentColor"/>
<rect x="22" y="22" width="2" height="5" transform="rotate(180 22 22)" fill="currentColor"/>
<rect width="2" height="5" transform="matrix(1 0 0 -1 2 22)" fill="currentColor"/>
<rect x="4" y="7" width="2" height="2" fill="currentColor"/>
<rect width="2" height="2" transform="matrix(-1 0 0 1 20 7)" fill="currentColor"/>
<rect x="20" y="17" width="2" height="2" transform="rotate(180 20 17)" fill="currentColor"/>
<rect width="2" height="2" transform="matrix(1 0 0 -1 4 17)" fill="currentColor"/>
<rect x="10" y="8" width="4" height="2" fill="currentColor"/>
<rect x="10" y="14" width="4" height="2" fill="currentColor"/>
<rect x="8" y="10" width="2" height="4" fill="currentColor"/>
<rect x="14" y="10" width="2" height="4" fill="currentColor"/>
</g>
<defs>
<clipPath id="clip0_496_1560">
<rect width="24" height="24" fill="none"/>
</clipPath>
</defs>
</svg>
