<svg width="24" height="24" viewBox="0 0 24 24" fill="none" xmlns="http://www.w3.org/2000/svg">
<rect x="2" y="10" width="2" height="2" fill="currentColor"/>
<rect width="2" height="2" transform="matrix(1 0 0 -1 2 14)" fill="currentColor"/>
<rect width="2" height="2" transform="matrix(-1 0 0 1 22 10)" fill="currentColor"/>
<rect x="22" y="14" width="2" height="2" transform="rotate(180 22 14)" fill="currentColor"/>
<rect x="4" y="8" width="2" height="2" fill="currentColor"/>
<rect width="2" height="2" transform="matrix(1 0 0 -1 4 16)" fill="currentColor"/>
<rect width="2" height="2" transform="matrix(-1 0 0 1 20 8)" fill="currentColor"/>
<rect x="20" y="16" width="2" height="2" transform="rotate(180 20 16)" fill="currentColor"/>
<rect x="6" y="6" width="2" height="2" fill="currentColor"/>
<rect width="2" height="2" transform="matrix(1 0 0 -1 6 18)" fill="currentColor"/>
<rect width="2" height="2" transform="matrix(-1 0 0 1 18 6)" fill="currentColor"/>
<rect x="18" y="18" width="2" height="2" transform="rotate(180 18 18)" fill="currentColor"/>
<rect x="8" y="4" width="2" height="2" fill="currentColor"/>
<rect width="2" height="2" transform="matrix(1 0 0 -1 8 20)" fill="currentColor"/>
<rect width="2" height="2" transform="matrix(-1 0 0 1 16 4)" fill="currentColor"/>
<rect x="16" y="20" width="2" height="2" transform="rotate(180 16 20)" fill="currentColor"/>
<rect x="10" y="2" width="2" height="2" fill="currentColor"/>
<rect width="2" height="2" transform="matrix(1 0 0 -1 10 22)" fill="currentColor"/>
<rect width="2" height="2" transform="matrix(-1 0 0 1 14 2)" fill="currentColor"/>
<rect x="14" y="22" width="2" height="2" transform="rotate(180 14 22)" fill="currentColor"/>
<rect width="2" height="2" transform="matrix(1 0 0 -1 11 17)" fill="currentColor"/>
<rect width="2" height="6" transform="matrix(1 0 0 -1 11 13)" fill="currentColor"/>
</svg>
